<mxfile host="app.diagrams.net" modified="2022-04-05T18:49:26.760Z" agent="5.0 (Windows NT 10.0; Win64; x64) AppleWebKit/537.36 (KHTML, like Gecko) Chrome/100.0.4896.75 Safari/537.36" etag="YqFJUv7mg09hH2T2dYyQ" version="17.2.4" type="github">
  <diagram id="R2lEEEUBdFMjLlhIrx00" name="Page-1">
    <mxGraphModel dx="868" dy="482" grid="1" gridSize="10" guides="1" tooltips="1" connect="1" arrows="1" fold="1" page="1" pageScale="1" pageWidth="850" pageHeight="1100" math="0" shadow="0" extFonts="Permanent Marker^https://fonts.googleapis.com/css?family=Permanent+Marker">
      <root>
        <mxCell id="0" />
        <mxCell id="1" parent="0" />
        <mxCell id="oDsJh11NOQ4W9sfK5s1z-21" style="edgeStyle=orthogonalEdgeStyle;rounded=0;orthogonalLoop=1;jettySize=auto;html=1;exitX=1;exitY=0.5;exitDx=0;exitDy=0;fontFamily=Helvetica;fontSize=12;fontColor=default;endArrow=baseDash;endFill=0;entryX=0;entryY=0.5;entryDx=0;entryDy=0;" edge="1" parent="1" source="oDsJh11NOQ4W9sfK5s1z-1" target="oDsJh11NOQ4W9sfK5s1z-6">
          <mxGeometry relative="1" as="geometry">
            <mxPoint x="570" y="160" as="targetPoint" />
          </mxGeometry>
        </mxCell>
        <mxCell id="oDsJh11NOQ4W9sfK5s1z-1" value="Hotel Nurul Fikri" style="rounded=0;whiteSpace=wrap;html=1;" vertex="1" parent="1">
          <mxGeometry x="170" y="130" width="120" height="60" as="geometry" />
        </mxCell>
        <mxCell id="oDsJh11NOQ4W9sfK5s1z-2" value="Kamar" style="ellipse;whiteSpace=wrap;html=1;" vertex="1" parent="1">
          <mxGeometry x="170" y="240" width="120" height="80" as="geometry" />
        </mxCell>
        <mxCell id="oDsJh11NOQ4W9sfK5s1z-3" value="Standard" style="ellipse;whiteSpace=wrap;html=1;" vertex="1" parent="1">
          <mxGeometry x="190" y="465" width="80" height="50" as="geometry" />
        </mxCell>
        <mxCell id="oDsJh11NOQ4W9sfK5s1z-4" value="&lt;span style=&quot;color: rgb(85 , 85 , 85) ; font-family: &amp;#34;pt sans&amp;#34; , sans-serif ; font-size: 16.5px ; text-align: left ; background-color: rgb(255 , 255 , 255)&quot;&gt;deluxe&lt;/span&gt;" style="ellipse;whiteSpace=wrap;html=1;" vertex="1" parent="1">
          <mxGeometry x="10" y="465" width="70" height="50" as="geometry" />
        </mxCell>
        <mxCell id="oDsJh11NOQ4W9sfK5s1z-5" value="&#xa;&#xa;&lt;span style=&quot;color: rgb(85, 85, 85); font-family: &amp;quot;pt sans&amp;quot;, sans-serif; font-size: 16.5px; font-style: normal; font-weight: 400; letter-spacing: normal; text-align: left; text-indent: 0px; text-transform: none; word-spacing: 0px; background-color: rgb(255, 255, 255); display: inline; float: none;&quot;&gt;suite&lt;/span&gt;&#xa;&#xa;" style="ellipse;whiteSpace=wrap;html=1;fontFamily=Helvetica;fontSize=12;fontColor=default;strokeColor=default;fillColor=default;" vertex="1" parent="1">
          <mxGeometry x="90" y="465" width="80" height="50" as="geometry" />
        </mxCell>
        <mxCell id="oDsJh11NOQ4W9sfK5s1z-6" value="Pelanggan" style="rounded=0;whiteSpace=wrap;html=1;fontFamily=Helvetica;fontSize=12;fontColor=default;strokeColor=default;fillColor=default;" vertex="1" parent="1">
          <mxGeometry x="720" y="130" width="120" height="60" as="geometry" />
        </mxCell>
        <mxCell id="oDsJh11NOQ4W9sfK5s1z-7" value="&lt;span style=&quot;color: rgb(85 , 85 , 85) ; font-family: &amp;#34;pt sans&amp;#34; , sans-serif ; font-size: 16.5px ; text-align: left ; background-color: rgb(255 , 255 , 255)&quot;&gt;kategori kamar&lt;/span&gt;" style="ellipse;whiteSpace=wrap;html=1;fontFamily=Helvetica;fontSize=12;fontColor=default;strokeColor=default;fillColor=default;" vertex="1" parent="1">
          <mxGeometry x="100" y="340" width="120" height="80" as="geometry" />
        </mxCell>
        <mxCell id="oDsJh11NOQ4W9sfK5s1z-8" value="&lt;span style=&quot;color: rgb(85 , 85 , 85) ; font-family: &amp;#34;pt sans&amp;#34; , sans-serif ; font-size: 16.5px ; text-align: left ; background-color: rgb(255 , 255 , 255)&quot;&gt;nama&lt;/span&gt;" style="ellipse;whiteSpace=wrap;html=1;fontFamily=Helvetica;fontSize=12;fontColor=default;strokeColor=default;fillColor=default;" vertex="1" parent="1">
          <mxGeometry x="650" y="230" width="80" height="50" as="geometry" />
        </mxCell>
        <mxCell id="oDsJh11NOQ4W9sfK5s1z-9" value="&lt;span style=&quot;color: rgb(85 , 85 , 85) ; font-family: &amp;#34;pt sans&amp;#34; , sans-serif ; font-size: 16.5px ; text-align: left ; background-color: rgb(255 , 255 , 255)&quot;&gt;email&lt;/span&gt;" style="ellipse;whiteSpace=wrap;html=1;fontFamily=Helvetica;fontSize=12;fontColor=default;strokeColor=default;fillColor=default;" vertex="1" parent="1">
          <mxGeometry x="740" y="225" width="80" height="50" as="geometry" />
        </mxCell>
        <mxCell id="oDsJh11NOQ4W9sfK5s1z-11" value="&lt;span style=&quot;color: rgb(85 , 85 , 85) ; font-family: &amp;#34;pt sans&amp;#34; , sans-serif ; font-size: 16.5px ; text-align: left ; background-color: rgb(255 , 255 , 255)&quot;&gt;negara asal&lt;/span&gt;" style="ellipse;whiteSpace=wrap;html=1;fontFamily=Helvetica;fontSize=12;fontColor=default;strokeColor=default;fillColor=default;" vertex="1" parent="1">
          <mxGeometry x="820" y="220" width="90" height="60" as="geometry" />
        </mxCell>
        <mxCell id="oDsJh11NOQ4W9sfK5s1z-12" value="&lt;span style=&quot;color: rgb(85 , 85 , 85) ; font-family: &amp;#34;pt sans&amp;#34; , sans-serif ; font-size: 16.5px ; text-align: left ; background-color: rgb(255 , 255 , 255)&quot;&gt;pemesanan&amp;nbsp;&lt;/span&gt;" style="rounded=0;whiteSpace=wrap;html=1;fontFamily=Helvetica;fontSize=12;fontColor=default;strokeColor=default;fillColor=default;" vertex="1" parent="1">
          <mxGeometry x="450" y="270" width="120" height="60" as="geometry" />
        </mxCell>
        <mxCell id="oDsJh11NOQ4W9sfK5s1z-13" value="&lt;span style=&quot;color: rgb(85 , 85 , 85) ; font-family: &amp;#34;pt sans&amp;#34; , sans-serif ; font-size: 16.5px ; text-align: left ; background-color: rgb(255 , 255 , 255)&quot;&gt;fasilitas tambahan&lt;/span&gt;" style="ellipse;whiteSpace=wrap;html=1;fontFamily=Helvetica;fontSize=12;fontColor=default;strokeColor=default;fillColor=default;" vertex="1" parent="1">
          <mxGeometry x="710" y="390" width="120" height="80" as="geometry" />
        </mxCell>
        <mxCell id="oDsJh11NOQ4W9sfK5s1z-14" value="&lt;span style=&quot;color: rgb(85 , 85 , 85) ; font-family: &amp;#34;pt sans&amp;#34; , sans-serif ; font-size: 16.5px ; text-align: left ; background-color: rgb(255 , 255 , 255)&quot;&gt;toiletries&lt;/span&gt;" style="ellipse;whiteSpace=wrap;html=1;fontFamily=Helvetica;fontSize=12;fontColor=default;strokeColor=default;fillColor=default;" vertex="1" parent="1">
          <mxGeometry x="330" y="465" width="90" height="65" as="geometry" />
        </mxCell>
        <mxCell id="oDsJh11NOQ4W9sfK5s1z-15" value="&lt;span style=&quot;color: rgb(85 , 85 , 85) ; font-family: &amp;#34;pt sans&amp;#34; , sans-serif ; font-size: 16.5px ; text-align: left ; background-color: rgb(255 , 255 , 255)&quot;&gt;sarapan&lt;/span&gt;" style="ellipse;whiteSpace=wrap;html=1;fontFamily=Helvetica;fontSize=12;fontColor=default;strokeColor=default;fillColor=default;" vertex="1" parent="1">
          <mxGeometry x="530" y="475" width="90" height="50" as="geometry" />
        </mxCell>
        <mxCell id="oDsJh11NOQ4W9sfK5s1z-16" value="&lt;span style=&quot;color: rgb(85 , 85 , 85) ; font-family: &amp;#34;pt sans&amp;#34; , sans-serif ; font-size: 16.5px ; text-align: left ; background-color: rgb(255 , 255 , 255)&quot;&gt;internet&lt;/span&gt;" style="ellipse;whiteSpace=wrap;html=1;fontFamily=Helvetica;fontSize=12;fontColor=default;strokeColor=default;fillColor=default;" vertex="1" parent="1">
          <mxGeometry x="425" y="470" width="90" height="60" as="geometry" />
        </mxCell>
        <mxCell id="oDsJh11NOQ4W9sfK5s1z-17" value="Waktu" style="ellipse;whiteSpace=wrap;html=1;fontFamily=Helvetica;fontSize=12;fontColor=default;strokeColor=default;fillColor=default;" vertex="1" parent="1">
          <mxGeometry x="440" y="340" width="90" height="60" as="geometry" />
        </mxCell>
        <mxCell id="oDsJh11NOQ4W9sfK5s1z-18" value="&lt;span style=&quot;color: rgb(85 , 85 , 85) ; font-family: &amp;#34;pt sans&amp;#34; , sans-serif ; font-size: 16.5px ; text-align: left ; background-color: rgb(255 , 255 , 255)&quot;&gt;tanggal check in&lt;/span&gt;" style="ellipse;whiteSpace=wrap;html=1;fontFamily=Helvetica;fontSize=12;fontColor=default;strokeColor=default;fillColor=default;" vertex="1" parent="1">
          <mxGeometry x="530" y="360" width="120" height="65" as="geometry" />
        </mxCell>
        <mxCell id="oDsJh11NOQ4W9sfK5s1z-19" value="&lt;span style=&quot;color: rgb(85 , 85 , 85) ; font-family: &amp;#34;pt sans&amp;#34; , sans-serif ; font-size: 16.5px ; text-align: left ; background-color: rgb(255 , 255 , 255)&quot;&gt;check out&lt;/span&gt;" style="ellipse;whiteSpace=wrap;html=1;fontFamily=Helvetica;fontSize=12;fontColor=default;strokeColor=default;fillColor=default;" vertex="1" parent="1">
          <mxGeometry x="670" y="510" width="120" height="80" as="geometry" />
        </mxCell>
        <mxCell id="oDsJh11NOQ4W9sfK5s1z-20" value="&lt;span style=&quot;color: rgb(85 , 85 , 85) ; font-family: &amp;#34;pt sans&amp;#34; , sans-serif ; font-size: 16.5px ; text-align: left ; background-color: rgb(255 , 255 , 255)&quot;&gt;kamar yang diinginkan&lt;/span&gt;" style="ellipse;whiteSpace=wrap;html=1;fontFamily=Helvetica;fontSize=12;fontColor=default;strokeColor=default;fillColor=default;" vertex="1" parent="1">
          <mxGeometry x="320" y="360" width="120" height="80" as="geometry" />
        </mxCell>
        <mxCell id="oDsJh11NOQ4W9sfK5s1z-24" value="" style="endArrow=none;html=1;rounded=0;fontFamily=Helvetica;fontSize=12;fontColor=default;" edge="1" parent="1">
          <mxGeometry width="50" height="50" relative="1" as="geometry">
            <mxPoint x="430" y="190" as="sourcePoint" />
            <mxPoint x="480" y="140" as="targetPoint" />
          </mxGeometry>
        </mxCell>
        <mxCell id="oDsJh11NOQ4W9sfK5s1z-25" value="" style="endArrow=none;html=1;rounded=0;fontFamily=Helvetica;fontSize=12;fontColor=default;" edge="1" parent="1">
          <mxGeometry width="50" height="50" relative="1" as="geometry">
            <mxPoint x="229" y="240" as="sourcePoint" />
            <mxPoint x="229" y="190" as="targetPoint" />
          </mxGeometry>
        </mxCell>
        <mxCell id="oDsJh11NOQ4W9sfK5s1z-27" value="" style="endArrow=none;html=1;rounded=0;fontFamily=Helvetica;fontSize=12;fontColor=default;" edge="1" parent="1">
          <mxGeometry width="50" height="50" relative="1" as="geometry">
            <mxPoint x="30" y="290" as="sourcePoint" />
            <mxPoint x="80" y="240" as="targetPoint" />
          </mxGeometry>
        </mxCell>
        <mxCell id="oDsJh11NOQ4W9sfK5s1z-28" value="" style="endArrow=none;html=1;rounded=0;fontFamily=Helvetica;fontSize=12;fontColor=default;" edge="1" parent="1">
          <mxGeometry width="50" height="50" relative="1" as="geometry">
            <mxPoint x="80" y="360" as="sourcePoint" />
            <mxPoint x="130" y="310" as="targetPoint" />
            <Array as="points">
              <mxPoint x="100" y="340" />
              <mxPoint x="110" y="330" />
            </Array>
          </mxGeometry>
        </mxCell>
      </root>
    </mxGraphModel>
  </diagram>
</mxfile>
